<?xml version="1.0" encoding="UTF-8"?>
<svg id="_图层_2" data-name="图层 2" xmlns="http://www.w3.org/2000/svg" viewBox="0 0 91.53 100.18">
  <defs>
    <style>
      .cls-1, .cls-2, .cls-3 {
        fill: none;
      }

      .cls-4, .cls-5 {
        fill: #f15a24;
      }

      .cls-6, .cls-7 {
        fill: #c7b299;
      }

      .cls-6, .cls-5 {
        opacity: .5;
      }

      .cls-8 {
        fill: #ff0;
      }

      .cls-2 {
        stroke-miterlimit: 10;
      }

      .cls-2, .cls-3 {
        stroke: #fff;
        stroke-linecap: square;
      }

      .cls-3 {
        stroke-linejoin: bevel;
      }
    </style>
  </defs>
  <polygon class="cls-1" points="33.85 19.49 45.85 44.81 57.89 19.49 33.85 19.49"/>
  <rect x="43.68" y="41.38" width="49.83" height="0" transform="translate(-11.39 45.87) rotate(-34.32)"/>
  <polygon class="cls-8" points="56.59 63.5 56.71 63.28 56.59 63.1 56.59 63.5"/>
  <g>
    <polygon class="cls-7" points="33.85 19.49 11.29 19.49 35.05 63.28 35.05 67.51 45.85 44.81 33.85 19.49"/>
    <polygon class="cls-7" points="47.17 80.87 56.59 80.87 56.59 63.5 47.17 80.87"/>
    <polygon class="cls-7" points="56.59 63.5 56.59 63.1 56.71 63.28 80.48 19.49 80.48 19.49 90.69 .68 66.83 .68 45.89 44.88 45.85 44.81 35.05 67.51 35.05 72.12 35.05 99.68 36.96 99.68 56.59 99.68 56.59 80.87 47.17 80.87 56.59 63.5"/>
    <polygon class="cls-6" points="24.94 .68 1.08 .68 11.29 19.49 33.85 19.49 24.94 .68"/>
  </g>
  <g>
    <polygon class="cls-4" points="90.69 19.49 90.69 .68 80.48 19.49 90.69 19.49"/>
    <polygon class="cls-4" points="1.08 19.49 11.29 19.49 1.08 .68 1.08 19.49"/>
    <rect class="cls-4" x="56.59" y="80.87" width="33.52" height="18.81"/>
    <polygon class="cls-4" points="57.89 19.49 45.85 44.81 45.89 44.88 66.83 .68 24.94 .68 33.85 19.49 57.89 19.49"/>
    <polygon class="cls-4" points="35.05 67.51 28.71 80.87 .5 80.87 .5 99.68 19.76 99.68 35.05 99.68 35.05 72.12 35.05 67.51"/>
    <polygon class="cls-5" points="57.89 19.49 80.48 19.49 90.69 .68 66.83 .68 57.89 19.49"/>
    <polygon class="cls-5" points="45.85 44.81 35.05 67.51 35.05 80.87 35.05 99.68 36.96 99.68 47.17 80.87 56.59 63.5 66.7 44.88 45.85 44.81"/>
  </g>
  <polygon class="cls-2" points="19.76 99.68 66.83 .68 90.69 .68 36.96 99.68 19.76 99.68"/>
  <polyline class="cls-2" points="36.96 99.68 90.11 99.68 90.11 80.87 56.59 80.87 56.72 63.28"/>
  <polygon class="cls-2" points="19.76 99.68 .5 99.68 .5 80.87 28.71 80.87 19.76 99.68"/>
  <polyline class="cls-2" points="35.05 67.51 35.05 63.28 11.29 19.49 1.08 19.49 1.08 .68 66.83 .68 57.89 19.49 33.85 19.49 45.85 44.81"/>
  <polygon class="cls-3" points="80.48 19.49 90.69 19.49 90.69 .68 80.48 19.49"/>
  <polygon class="cls-3" points="86.58 19.49 90.92 19.49 90.92 11.49 86.58 19.49"/>
  <polygon class="cls-2" points="13.65 99.68 .5 99.68 .5 80.87 19.76 80.87 13.65 99.68"/>
  <polygon class="cls-2" points="7.87 99.68 .5 99.68 .5 80.87 11.29 80.87 7.87 99.68"/>
  <line class="cls-2" x1="1.08" y1=".68" x2="11.29" y2="19.49"/>
  <line class="cls-2" x1="33.85" y1="19.49" x2="24.94" y2=".68"/>
</svg>